<svg width="50" height="50" viewBox="0 0 50 50" fill="none" xmlns="http://www.w3.org/2000/svg">
<path d="M41.6667 10.4167H8.33333C7.08333 10.4167 6.25 9.58333 6.25 8.33333C6.25 7.08333 7.08333 6.25 8.33333 6.25H41.6667C42.9167 6.25 43.75 7.08333 43.75 8.33333C43.75 9.58333 42.9167 10.4167 41.6667 10.4167Z" fill="black"/>
<path d="M41.6667 43.75H8.33333C7.08333 43.75 6.25 42.9167 6.25 41.6667C6.25 40.4167 7.08333 39.5833 8.33333 39.5833H41.6667C42.9167 39.5833 43.75 40.4167 43.75 41.6667C43.75 42.9167 42.9167 43.75 41.6667 43.75Z" fill="black"/>
<path d="M41.6667 27.0833H8.33333C7.08333 27.0833 6.25 26.25 6.25 25C6.25 23.75 7.08333 22.9167 8.33333 22.9167H41.6667C42.9167 22.9167 43.75 23.75 43.75 25C43.75 26.25 42.9167 27.0833 41.6667 27.0833Z" fill="black"/>
</svg>
